<svg width="23" height="22" viewBox="0 0 23 22" fill="none" xmlns="http://www.w3.org/2000/svg">
<path d="M7.5 17.875C7.86467 17.875 8.21479 18.0195 8.47266 18.2773C8.73052 18.5352 8.875 18.8853 8.875 19.25C8.875 19.5218 8.79451 19.7876 8.64355 20.0137C8.49249 20.2398 8.27758 20.4164 8.02637 20.5205C7.77512 20.6246 7.49817 20.6517 7.23145 20.5986C6.96483 20.5455 6.71957 20.4149 6.52734 20.2227C6.33511 20.0304 6.20446 19.7852 6.15137 19.5186C6.09831 19.2518 6.12542 18.9749 6.22949 18.7236C6.33357 18.4724 6.51024 18.2575 6.73633 18.1064C6.96238 17.9555 7.22817 17.875 7.5 17.875ZM17.25 17.875C17.6147 17.875 17.9648 18.0195 18.2227 18.2773C18.4805 18.5352 18.625 18.8853 18.625 19.25C18.625 19.5218 18.5445 19.7876 18.3936 20.0137C18.2425 20.2398 18.0276 20.4164 17.7764 20.5205C17.5251 20.6246 17.2482 20.6517 16.9814 20.5986C16.7148 20.5455 16.4696 20.4149 16.2773 20.2227C16.0851 20.0304 15.9545 19.7852 15.9014 19.5186C15.8483 19.2518 15.8754 18.9749 15.9795 18.7236C16.0836 18.4724 16.2602 18.2575 16.4863 18.1064C16.7124 17.9555 16.9782 17.875 17.25 17.875ZM1.125 1.375H2.3252L2.43652 1.37988C2.69589 1.40162 2.94434 1.49664 3.15332 1.6543C3.36212 1.81185 3.52213 2.02438 3.61426 2.26758L3.64941 2.37402L4.33203 4.7627L4.43652 5.125H21C21.0978 5.12499 21.194 5.14837 21.2812 5.19238C21.3686 5.23644 21.4448 5.30023 21.5029 5.37891C21.5609 5.45742 21.5997 5.54836 21.6162 5.64453C21.6326 5.74085 21.6264 5.8402 21.5977 5.93359L19.0391 14.25L19.0381 14.251C18.906 14.6857 18.6379 15.0669 18.2725 15.3369C17.9069 15.6069 17.4633 15.7517 17.0088 15.75H7.77637C7.31437 15.7485 6.86496 15.5975 6.49609 15.3193C6.12731 15.0412 5.85891 14.6507 5.73047 14.207H5.72949L2.52539 2.9873L2.42188 2.625H1.125C0.95924 2.625 0.799827 2.55959 0.682617 2.44238C0.565407 2.32517 0.5 2.16576 0.5 2C0.5 1.83424 0.565407 1.67483 0.682617 1.55762C0.799827 1.44041 0.95924 1.375 1.125 1.375ZM4.97461 7.0127L6.93262 13.8652C6.98494 14.0482 7.09607 14.2097 7.24805 14.3242C7.39975 14.4384 7.58455 14.4991 7.77441 14.499V14.5H17.0068V14.499C17.1937 14.4993 17.3758 14.4408 17.5264 14.3301C17.6395 14.2468 17.7303 14.1374 17.792 14.0127L17.8438 13.8828L19.9541 7.02246L20.1533 6.375H4.79199L4.97461 7.0127Z" fill="black"/>
<path d="M7.5 17.875C7.86467 17.875 8.21479 18.0195 8.47266 18.2773C8.73052 18.5352 8.875 18.8853 8.875 19.25C8.875 19.5218 8.79451 19.7876 8.64355 20.0137C8.49249 20.2398 8.27758 20.4164 8.02637 20.5205C7.77512 20.6246 7.49817 20.6517 7.23145 20.5986C6.96483 20.5455 6.71957 20.4149 6.52734 20.2227C6.33511 20.0304 6.20446 19.7852 6.15137 19.5186C6.09831 19.2518 6.12542 18.9749 6.22949 18.7236C6.33357 18.4724 6.51024 18.2575 6.73633 18.1064C6.96238 17.9555 7.22817 17.875 7.5 17.875ZM17.25 17.875C17.6147 17.875 17.9648 18.0195 18.2227 18.2773C18.4805 18.5352 18.625 18.8853 18.625 19.25C18.625 19.5218 18.5445 19.7876 18.3936 20.0137C18.2425 20.2398 18.0276 20.4164 17.7764 20.5205C17.5251 20.6246 17.2482 20.6517 16.9814 20.5986C16.7148 20.5455 16.4696 20.4149 16.2773 20.2227C16.0851 20.0304 15.9545 19.7852 15.9014 19.5186C15.8483 19.2518 15.8754 18.9749 15.9795 18.7236C16.0836 18.4724 16.2602 18.2575 16.4863 18.1064C16.7124 17.9555 16.9782 17.875 17.25 17.875ZM1.125 1.375H2.3252L2.43652 1.37988C2.69589 1.40162 2.94434 1.49664 3.15332 1.6543C3.36212 1.81185 3.52213 2.02438 3.61426 2.26758L3.64941 2.37402L4.33203 4.7627L4.43652 5.125H21C21.0978 5.12499 21.194 5.14837 21.2812 5.19238C21.3686 5.23644 21.4448 5.30023 21.5029 5.37891C21.5609 5.45742 21.5997 5.54836 21.6162 5.64453C21.6326 5.74085 21.6264 5.8402 21.5977 5.93359L19.0391 14.25L19.0381 14.251C18.906 14.6857 18.6379 15.0669 18.2725 15.3369C17.9069 15.6069 17.4633 15.7517 17.0088 15.75H7.77637C7.31437 15.7485 6.86496 15.5975 6.49609 15.3193C6.12731 15.0412 5.85891 14.6507 5.73047 14.207H5.72949L2.52539 2.9873L2.42188 2.625H1.125C0.95924 2.625 0.799827 2.55959 0.682617 2.44238C0.565407 2.32517 0.5 2.16576 0.5 2C0.5 1.83424 0.565407 1.67483 0.682617 1.55762C0.799827 1.44041 0.95924 1.375 1.125 1.375ZM4.97461 7.0127L6.93262 13.8652C6.98494 14.0482 7.09607 14.2097 7.24805 14.3242C7.39975 14.4384 7.58455 14.4991 7.77441 14.499V14.5H17.0068V14.499C17.1937 14.4993 17.3758 14.4408 17.5264 14.3301C17.6395 14.2468 17.7303 14.1374 17.792 14.0127L17.8438 13.8828L19.9541 7.02246L20.1533 6.375H4.79199L4.97461 7.0127Z" stroke="black"/>
<path d="M7.5 17.875C7.86467 17.875 8.21479 18.0195 8.47266 18.2773C8.73052 18.5352 8.875 18.8853 8.875 19.25C8.875 19.5218 8.79451 19.7876 8.64355 20.0137C8.49249 20.2398 8.27758 20.4164 8.02637 20.5205C7.77512 20.6246 7.49817 20.6517 7.23145 20.5986C6.96483 20.5455 6.71957 20.4149 6.52734 20.2227C6.33511 20.0304 6.20446 19.7852 6.15137 19.5186C6.09831 19.2518 6.12542 18.9749 6.22949 18.7236C6.33357 18.4724 6.51024 18.2575 6.73633 18.1064C6.96238 17.9555 7.22817 17.875 7.5 17.875ZM17.25 17.875C17.6147 17.875 17.9648 18.0195 18.2227 18.2773C18.4805 18.5352 18.625 18.8853 18.625 19.25C18.625 19.5218 18.5445 19.7876 18.3936 20.0137C18.2425 20.2398 18.0276 20.4164 17.7764 20.5205C17.5251 20.6246 17.2482 20.6517 16.9814 20.5986C16.7148 20.5455 16.4696 20.4149 16.2773 20.2227C16.0851 20.0304 15.9545 19.7852 15.9014 19.5186C15.8483 19.2518 15.8754 18.9749 15.9795 18.7236C16.0836 18.4724 16.2602 18.2575 16.4863 18.1064C16.7124 17.9555 16.9782 17.875 17.25 17.875ZM1.125 1.375H2.3252L2.43652 1.37988C2.69589 1.40162 2.94434 1.49664 3.15332 1.6543C3.36212 1.81185 3.52213 2.02438 3.61426 2.26758L3.64941 2.37402L4.33203 4.7627L4.43652 5.125H21C21.0978 5.12499 21.194 5.14837 21.2812 5.19238C21.3686 5.23644 21.4448 5.30023 21.5029 5.37891C21.5609 5.45742 21.5997 5.54836 21.6162 5.64453C21.6326 5.74085 21.6264 5.8402 21.5977 5.93359L19.0391 14.25L19.0381 14.251C18.906 14.6857 18.6379 15.0669 18.2725 15.3369C17.9069 15.6069 17.4633 15.7517 17.0088 15.75H7.77637C7.31437 15.7485 6.86496 15.5975 6.49609 15.3193C6.12731 15.0412 5.85891 14.6507 5.73047 14.207H5.72949L2.52539 2.9873L2.42188 2.625H1.125C0.95924 2.625 0.799827 2.55959 0.682617 2.44238C0.565407 2.32517 0.5 2.16576 0.5 2C0.5 1.83424 0.565407 1.67483 0.682617 1.55762C0.799827 1.44041 0.95924 1.375 1.125 1.375ZM4.97461 7.0127L6.93262 13.8652C6.98494 14.0482 7.09607 14.2097 7.24805 14.3242C7.39975 14.4384 7.58455 14.4991 7.77441 14.499V14.5H17.0068V14.499C17.1937 14.4993 17.3758 14.4408 17.5264 14.3301C17.6395 14.2468 17.7303 14.1374 17.792 14.0127L17.8438 13.8828L19.9541 7.02246L20.1533 6.375H4.79199L4.97461 7.0127Z" stroke="black" stroke-opacity="0.2"/>
</svg>
